<svg width="12" height="15" viewBox="0 0 12 15"
   xmlns="http://www.w3.org/2000/svg">
   <path fill-rule="evenodd" clip-rule="evenodd" d="M2 6.17365C1.94928 6.19025 1.90005 6.20844 1.85195 6.22836C1.11687 6.53284 0.532843 7.11687 0.228361 7.85195C0 8.40326 0 9.10217 0 10.5C0 11.8978 0 12.5967 0.228361 13.1481C0.532843 13.8831 1.11687 14.4672 1.85195 14.7716C2.40326 15 3.10218 15 4.5 15H7.5C8.89782 15 9.59674 15 10.1481 14.7716C10.8831 14.4672 11.4672 13.8831 11.7716 13.1481C12 12.5967 12 11.8978 12 10.5C12 9.10217 12 8.40326 11.7716 7.85195C11.4672 7.11687 10.8831 6.53284 10.1481 6.22836C10.0999 6.20844 10.0507 6.19025 10 6.17365V4C10 3.07003 10 2.60504 9.89778 2.22354C9.62038 1.18827 8.81173 0.379624 7.77646 0.102223C7.39496 0 6.92997 0 6 0C5.07003 0 4.60504 0 4.22354 0.102223C3.18827 0.379625 2.37962 1.18827 2.10222 2.22354C2 2.60504 2 3.07003 2 4V6.17365ZM3 6.02015C3.39391 6 3.87769 6 4.5 6H7.5C8.12231 6 8.6061 6 9 6.02015L9 4C9 3.00565 8.99141 2.70464 8.93185 2.48236C8.74692 1.79218 8.20782 1.25308 7.51764 1.06815C7.29536 1.00859 6.99435 1 6 1C5.00565 1 4.70464 1.00859 4.48236 1.06815C3.79218 1.25308 3.25308 1.79218 3.06815 2.48236C3.00859 2.70464 3 3.00565 3 4L3 6.02015ZM4.5 7H7.5C8.21259 7 8.69696 7.00054 9.0734 7.02623C9.44085 7.0513 9.63187 7.09694 9.76537 7.15224C10.2554 7.35523 10.6448 7.74458 10.8478 8.23463C10.9031 8.36813 10.9487 8.55915 10.9738 8.9266C10.9995 9.30304 11 9.78741 11 10.5C11 11.2126 10.9995 11.697 10.9738 12.0734C10.9487 12.4409 10.9031 12.6319 10.8478 12.7654C10.6448 13.2554 10.2554 13.6448 9.76537 13.8478C9.63187 13.9031 9.44085 13.9487 9.0734 13.9738C8.69696 13.9995 8.21259 14 7.5 14H4.5C3.78741 14 3.30304 13.9995 2.9266 13.9738C2.55915 13.9487 2.36813 13.9031 2.23463 13.8478C1.74458 13.6448 1.35523 13.2554 1.15224 12.7654C1.09694 12.6319 1.0513 12.4409 1.02623 12.0734C1.00054 11.697 1 11.2126 1 10.5C1 9.78741 1.00054 9.30304 1.02623 8.9266C1.0513 8.55915 1.09694 8.36813 1.15224 8.23463C1.35523 7.74458 1.74458 7.35523 2.23463 7.15224C2.36813 7.09694 2.55915 7.0513 2.9266 7.02623C3.30304 7.00054 3.78741 7 4.5 7Z"/>
</svg>
